solid OBJECT
  facet normal 0.71998831060378188 -0.68926928248127717 -0.080775545938466878
    outer loop
      vertex 14.774281595662455 3.1768093764082206 10.254289750999515
      vertex 18.513263953363808 8.2844719216602485 -0.0029149140704629794
      vertex 17.920432041848319 6.5387471738948539 9.6094298721782359
    endloop
  endfacet
  facet normal 0.7356948309253698 -0.6599788806507817 -0.15225305528833599
    outer loop
      vertex 21.213112528723745 3.1261197069307953 9.9759073470741342
      vertex 24.427057719336798 8.9460573016680538 0.27788826414450157
      vertex 24.346557451975933 6.6656358466401668 9.7739628485117773
    endloop
  endfacet
  facet normal 0.72616045149397546 -0.66632016512448178 -0.16943564039052955
    outer loop
      vertex 27.623096534274353 3.2131994879240531 9.9136114185349111
      vertex 30.762362675696505 9.0678904233914874 0.34367850169836739
      vertex 30.832501228347176 6.7335284871843122 9.8243537017408844
    endloop
  endfacet
  facet normal 0.71104823432891862 -0.6767827975213081 -0.19072349995991414
    outer loop
      vertex 34.025610879426139 3.2497330401507365 9.8558807616333617
      vertex 36.463283712434261 8.5885602377591841 -0.00091949052964321668
      vertex 37.286358531973583 6.7209357334321886 9.6949073703473019
    endloop
  endfacet
  facet normal 0.73982394210449454 -0.64820851869398022 -0.1802394268231044
    outer loop
      vertex 40.514574992066414 3.2904222736797566 9.6330312383801751
      vertex 43.20092719133001 9.0352076180394914 -0.00077172553080276645
      vertex 43.601323355380543 6.8194168376145594 9.6115376262226437
    endloop
  endfacet
  facet normal 0.70012966990502457 0.6936876405085749 0.1691623561089392
    outer loop
      vertex 21.213112528723745 3.1261197069307953 9.9759073470741342
      vertex 18.513263953363808 8.2844719216602485 -0.0029149140704629794
      vertex 17.920432041848319 6.5387471738948539 9.6094298721782359
    endloop
  endfacet
  facet normal 0.71137029020913678 0.68199545381044935 0.16980727660983105
    outer loop
      vertex 27.623096534274353 3.2131994879240531 9.9136114185349111
      vertex 24.427057719336798 8.9460573016680538 0.27788826414450157
      vertex 24.346557451975933 6.6656358466401668 9.7739628485117773
    endloop
  endfacet
  facet normal 0.72708992404917916 0.66786144784071988 0.15906391430571634
    outer loop
      vertex 34.025610879426139 3.2497330401507365 9.8558807616333617
      vertex 30.762362675696505 9.0678904233914874 0.34367850169836739
      vertex 30.832501228347176 6.7335284871843122 9.8243537017408844
    endloop
  endfacet
  facet normal 0.72710372105404375 0.68296696186226058 0.069830565184572008
    outer loop
      vertex 40.514574992066414 3.2904222736797566 9.6330312383801751
      vertex 36.463283712434261 8.5885602377591841 -0.00091949052964321668
      vertex 37.286358531973583 6.7209357334321886 9.6949073703473019
    endloop
  endfacet
  facet normal 0.66728647083101067 0.73137190113877604 0.14079740079471317
    outer loop
      vertex 47.121481479665995 3.6204621205040688 9.5452842837678702
      vertex 43.20092719133001 9.0352076180394914 -0.00077172553080276645
      vertex 43.601323355380543 6.8194168376145594 9.6115376262226437
    endloop
  endfacet
  facet normal 0.82779212533087299 0.31977343825190452 0.46098280383193441
    outer loop
      vertex 18.513263953363808 8.2844719216602485 -0.0029149140704629794
      vertex 15.556916127882888 10.402866474691374 3.8363500762143685
      vertex 14.774281595662455 3.1768093764082206 10.254289750999515
    endloop
  endfacet
  facet normal 0.68916206973057237 0.49742355547989731 0.52690174425447822
    outer loop
      vertex 24.427057719336798 8.9460573016680538 0.27788826414450157
      vertex 20.993314738128309 10.31518959443679 3.4765240349289619
      vertex 21.213112528723745 3.1261197069307953 9.9759073470741342
    endloop
  endfacet
  facet normal 0.70653114317836341 0.47646238972919497 0.52325647142927845
    outer loop
      vertex 30.762362675696505 9.0678904233914874 0.34367850169836739
      vertex 27.497655457377157 10.45397276132744 3.4897479913136999
      vertex 27.623096534274353 3.2131994879240531 9.9136114185349111
    endloop
  endfacet
  facet normal 0.88419561712072769 0.28275219882266267 0.37181891388879729
    outer loop
      vertex 36.463283712434261 8.5885602377591841 -0.00091949052964321668
      vertex 34.474574992280083 10.469443694045271 3.2979541150849432
      vertex 34.025610879426139 3.2497330401507365 9.8558807616333617
    endloop
  endfacet
  facet normal 0.66321288766392428 0.54682205575803078 0.5110130183987881
    outer loop
      vertex 43.20092719133001 9.0352076180394914 -0.00077172553080276645
      vertex 39.720860894181826 10.468171328665623 2.9824177456475032
      vertex 40.514574992066414 3.2904222736797566 9.6330312383801751
    endloop
  endfacet
  facet normal -0.84813199309684517 0.3407862830104994 0.4056313986829187
    outer loop
      vertex 18.513263953363808 8.2844719216602485 -0.0029149140704629794
      vertex 21.213112528723745 3.1261197069307953 9.9759073470741342
      vertex 20.993314738128309 10.31518959443679 3.4765240349289619
    endloop
  endfacet
  facet normal -0.74384760117857895 0.43629229406852083 0.50630008923295799
    outer loop
      vertex 24.427057719336798 8.9460573016680538 0.27788826414450157
      vertex 27.623096534274353 3.2131994879240531 9.9136114185349111
      vertex 27.497655457377157 10.45397276132744 3.4897479913136999
    endloop
  endfacet
  facet normal -0.63981698035275691 0.53815334497718259 0.54865764274468032
    outer loop
      vertex 30.762362675696505 9.0678904233914874 0.34367850169836739
      vertex 34.025610879426139 3.2497330401507365 9.8558807616333617
      vertex 34.474574992280083 10.469443694045271 3.2979541150849432
    endloop
  endfacet
  facet normal -0.73290390515367676 0.4170176280038847 0.53753898811574985
    outer loop
      vertex 36.463283712434261 8.5885602377591841 -0.00091949052964321668
      vertex 40.514574992066414 3.2904222736797566 9.6330312383801751
      vertex 39.720860894181826 10.468171328665623 2.9824177456475032
    endloop
  endfacet
  facet normal -0.52002678586149975 0.63351230881068765 0.57291735579567649
    outer loop
      vertex 43.20092719133001 9.0352076180394914 -0.00077172553080276645
      vertex 47.121481479665995 3.6204621205040688 9.5452842837678702
      vertex 47.362376251925582 10.379646151145838 2.2898668928839068
    endloop
  endfacet
  facet normal 0.46908187493664932 0.59695711637314219 -0.65084898080690001
    outer loop
      vertex 12.649055874214566 1.184491649983443 0.89931720201480869
      vertex 17.920432041848319 6.5387471738948539 9.6094298721782359
      vertex 17.133723371390378 -0.85470521030887203 2.2611740793299306
    endloop
  endfacet
  facet normal 0.72259442162666976 0.44870493553366086 -0.52585281463709221
    outer loop
      vertex 20.60341464352549 1.310036916202681 0.060488577028667029
      vertex 24.346557451975933 6.6656358466401668 9.7739628485117773
      vertex 24.004456149583014 -0.61108623805757023 3.0947143803354531
    endloop
  endfacet
  facet normal 0.69893165246388267 0.48877514070537165 -0.5221047854717964
    outer loop
      vertex 27.59014990549818 1.1051720016357836 0.21482159109850654
      vertex 30.832501228347176 6.7335284871843122 9.8243537017408844
      vertex 31.022827001805091 -0.51319910541055103 3.2950214944252005
    endloop
  endfacet
  facet normal 0.79047184679104054 0.39285713612347956 -0.46991225779672896
    outer loop
      vertex 34.458734029740675 1.0408489407307544 0.18968566455969552
      vertex 37.286358531973583 6.7209357334321886 9.6949073703473019
      vertex 37.057559495265281 -0.6996306793809175 3.1062695660065147
    endloop
  endfacet
  facet normal 0.71915405897703122 0.46289961011157948 -0.51820979382428534
    outer loop
      vertex 40.453168989734053 0.97199068176508963 0.01932355138522486
      vertex 43.601323355380543 6.8194168376145594 9.6115376262226437
      vertex 43.64903954937251 -0.44554051807637779 3.1882112582015094
    endloop
  endfacet
  facet normal 0.66372756948559064 -0.56161887228119634 0.49401412510407822
    outer loop
      vertex 20.60341464352549 1.310036916202681 0.060488577028667029
      vertex 17.920432041848319 6.5387471738948539 9.6094298721782359
      vertex 17.133723371390378 -0.85470521030887203 2.2611740793299306
    endloop
  endfacet
  facet normal 0.67259801893509763 -0.5173183984619919 0.52914419541113944
    outer loop
      vertex 27.59014990549818 1.1051720016357836 0.21482159109850654
      vertex 24.346557451975933 6.6656358466401668 9.7739628485117773
      vertex 24.004456149583014 -0.61108623805757023 3.0947143803354531
    endloop
  endfacet
  facet normal 0.69962352064016298 -0.46804862378866691 0.53986796083542354
    outer loop
      vertex 34.458734029740675 1.0408489407307544 0.18968566455969552
      vertex 30.832501228347176 6.7335284871843122 9.8243537017408844
      vertex 31.022827001805091 -0.51319910541055103 3.2950214944252005
    endloop
  endfacet
  facet normal 0.70744513084100547 -0.4813281085586843 0.51753708926092645
    outer loop
      vertex 40.453168989734053 0.97199068176508963 0.01932355138522486
      vertex 37.286358531973583 6.7209357334321886 9.6949073703473019
      vertex 37.057559495265281 -0.6996306793809175 3.1062695660065147
    endloop
  endfacet
  facet normal 0.69817097457049992 -0.47163863619965096 0.53862258317955036
    outer loop
      vertex 46.920911512138318 0.75655646825092693 -0.00023777333583063082
      vertex 43.601323355380543 6.8194168376145594 9.6115376262226437
      vertex 43.64903954937251 -0.44554051807637779 3.1882112582015094
    endloop
  endfacet
  facet normal 0.72814314186303752 -0.68514761410964597 -0.019501585517182014
    outer loop
      vertex 17.920432041848319 6.5387471738948539 9.6094298721782359
      vertex 14.774281595662455 3.1768093764082206 10.254289750999515
      vertex 12.649055874214566 1.184491649983443 0.89931720201480869
    endloop
  endfacet
  facet normal 0.74877400203721667 -0.65861527742239467 0.07458827132326129
    outer loop
      vertex 24.346557451975933 6.6656358466401668 9.7739628485117773
      vertex 21.213112528723745 3.1261197069307953 9.9759073470741342
      vertex 20.60341464352549 1.310036916202681 0.060488577028667029
    endloop
  endfacet
  facet normal 0.73328668964265953 -0.66491982857156606 0.14202905465174767
    outer loop
      vertex 30.832501228347176 6.7335284871843122 9.8243537017408844
      vertex 27.623096534274353 3.2131994879240531 9.9136114185349111
      vertex 27.59014990549818 1.1051720016357836 0.21482159109850654
    endloop
  endfacet
  facet normal 0.72054211958589887 -0.66827736910598656 0.18499841038084949
    outer loop
      vertex 37.286358531973583 6.7209357334321886 9.6949073703473019
      vertex 34.025610879426139 3.2497330401507365 9.8558807616333617
      vertex 34.458734029740675 1.0408489407307544 0.18968566455969552
    endloop
  endfacet
  facet normal 0.74440289883185662 -0.6501898503593343 0.15204434451973292
    outer loop
      vertex 43.601323355380543 6.8194168376145594 9.6115376262226437
      vertex 40.514574992066414 3.2904222736797566 9.6330312383801751
      vertex 40.453168989734053 0.97199068176508963 0.01932355138522486
    endloop
  endfacet
  facet normal -0.71837800451406708 -0.67510610495343304 0.16782368630497657
    outer loop
      vertex 17.920432041848319 6.5387471738948539 9.6094298721782359
      vertex 20.60341464352549 1.310036916202681 0.060488577028667029
      vertex 21.213112528723745 3.1261197069307953 9.9759073470741342
    endloop
  endfacet
  facet normal -0.72018694558799701 -0.67743957187242632 0.14968764099261905
    outer loop
      vertex 24.346557451975933 6.6656358466401668 9.7739628485117773
      vertex 27.59014990549818 1.1051720016357836 0.21482159109850654
      vertex 27.623096534274353 3.2131994879240531 9.9136114185349111
    endloop
  endfacet
  facet normal -0.73237870755736512 -0.67018051970258641 0.12033079293254245
    outer loop
      vertex 30.832501228347176 6.7335284871843122 9.8243537017408844
      vertex 34.458734029740675 1.0408489407307544 0.18968566455969552
      vertex 34.025610879426139 3.2497330401507365 9.8558807616333617
    endloop
  endfacet
  facet normal -0.7164036780825852 -0.67718557705796145 0.16788527110625073
    outer loop
      vertex 37.286358531973583 6.7209357334321886 9.6949073703473019
      vertex 40.453168989734053 0.97199068176508963 0.01932355138522486
      vertex 40.514574992066414 3.2904222736797566 9.6330312383801751
    endloop
  endfacet
  facet normal -0.65206143751504742 -0.72230622888643459 0.23041179096927222
    outer loop
      vertex 43.601323355380543 6.8194168376145594 9.6115376262226437
      vertex 46.920911512138318 0.75655646825092693 -0.00023777333583063082
      vertex 47.121481479665995 3.6204621205040688 9.5452842837678702
    endloop
  endfacet
  facet normal -0.79941655627376851 -0.028001110915235092 -0.60012424325542912
    outer loop
      vertex 15.556916127882888 10.402866474691374 3.8363500762143685
      vertex 18.513263953363808 8.2844719216602485 -0.0029149140704629794
      vertex 17.133723371390378 -0.85470521030887203 2.2611740793299306
    endloop
  endfacet
  facet normal -0.70721080588519403 -0.17092546811065648 -0.68603014539476881
    outer loop
      vertex 20.993314738128309 10.31518959443679 3.4765240349289619
      vertex 24.427057719336798 8.9460573016680538 0.27788826414450157
      vertex 24.004456149583014 -0.61108623805757023 3.0947143803354531
    endloop
  endfacet
  facet normal -0.72377079654826493 -0.22103484364123671 -0.6536814453236256
    outer loop
      vertex 27.497655457377157 10.45397276132744 3.4897479913136999
      vertex 30.762362675696505 9.0678904233914874 0.34367850169836739
      vertex 31.022827001805091 -0.51319910541055103 3.2950214944252005
    endloop
  endfacet
  facet normal -0.88526458863102919 -0.19750178872574839 -0.42106965168017579
    outer loop
      vertex 34.474574992280083 10.469443694045271 3.2979541150849432
      vertex 36.463283712434261 8.5885602377591841 -0.00091949052964321668
      vertex 37.057559495265281 -0.6996306793809175 3.1062695660065147
    endloop
  endfacet
  facet normal -0.68794101114055284 -0.26038526343082047 -0.67744865471781401
    outer loop
      vertex 39.720860894181826 10.468171328665623 2.9824177456475032
      vertex 43.20092719133001 9.0352076180394914 -0.00077172553080276645
      vertex 43.64903954937251 -0.44554051807637779 3.1882112582015094
    endloop
  endfacet
  facet normal -0.85133592323215623 0.24361211667181085 0.46462918808995612
    outer loop
      vertex 20.993314738128309 10.31518959443679 3.4765240349289619
      vertex 18.513263953363808 8.2844719216602485 -0.0029149140704629794
      vertex 17.133723371390378 -0.85470521030887203 2.2611740793299306
    endloop
  endfacet
  facet normal -0.75442370058294084 0.21604081790883595 0.61981549270409686
    outer loop
      vertex 27.497655457377157 10.45397276132744 3.4897479913136999
      vertex 24.427057719336798 8.9460573016680538 0.27788826414450157
      vertex 24.004456149583014 -0.61108623805757023 3.0947143803354531
    endloop
  endfacet
  facet normal -0.65577614241516713 0.20591072352455994 0.72633217261572192
    outer loop
      vertex 34.474574992280083 10.469443694045271 3.2979541150849432
      vertex 30.762362675696505 9.0678904233914874 0.34367850169836739
      vertex 31.022827001805091 -0.51319910541055103 3.2950214944252005
    endloop
  endfacet
  facet normal -0.71862317168147072 0.17883017993336145 0.67201227955109943
    outer loop
      vertex 39.720860894181826 10.468171328665623 2.9824177456475032
      vertex 36.463283712434261 8.5885602377591841 -0.00091949052964321668
      vertex 37.057559495265281 -0.6996306793809175 3.1062695660065147
    endloop
  endfacet
  facet normal -0.52745527978987705 0.24835585058510429 0.81247172215525876
    outer loop
      vertex 47.362376251925582 10.379646151145838 2.2898668928839068
      vertex 43.20092719133001 9.0352076180394914 -0.00077172553080276645
      vertex 43.64903954937251 -0.44554051807637779 3.1882112582015094
    endloop
  endfacet
  facet normal -0.3593191101923936 -0.17849456626691984 0.91598551673251405
    outer loop
      vertex 17.133723371390378 -0.85470521030887203 2.2611740793299306
      vertex 15.556916127882888 10.402866474691374 3.8363500762143685
      vertex 12.649055874214566 1.184491649983443 0.89931720201480869
    endloop
  endfacet
  facet normal -0.71571973570212255 -0.22040061238842948 0.6626981439428431
    outer loop
      vertex 24.004456149583014 -0.61108623805757023 3.0947143803354531
      vertex 20.993314738128309 10.31518959443679 3.4765240349289619
      vertex 20.60341464352549 1.310036916202681 0.060488577028667029
    endloop
  endfacet
  facet normal -0.70854271274253755 -0.23953197786146899 0.66377078558883462
    outer loop
      vertex 31.022827001805091 -0.51319910541055103 3.2950214944252005
      vertex 27.497655457377157 10.45397276132744 3.4897479913136999
      vertex 27.59014990549818 1.1051720016357836 0.21482159109850654
    endloop
  endfacet
  facet normal -0.78684078195316798 -0.19203241042648711 0.58651951135586311
    outer loop
      vertex 37.057559495265281 -0.6996306793809175 3.1062695660065147
      vertex 34.474574992280083 10.469443694045271 3.2979541150849432
      vertex 34.458734029740675 1.0408489407307544 0.18968566455969552
    endloop
  endfacet
  facet normal -0.73546314330685691 -0.25286228270718425 0.62861326013798779
    outer loop
      vertex 43.64903954937251 -0.44554051807637779 3.1882112582015094
      vertex 39.720860894181826 10.468171328665623 2.9824177456475032
      vertex 40.453168989734053 0.97199068176508963 0.01932355138522486
    endloop
  endfacet
  facet normal 0.63676661239888122 -0.29742782624972786 0.71138243547786195
    outer loop
      vertex 17.133723371390378 -0.85470521030887203 2.2611740793299306
      vertex 20.60341464352549 1.310036916202681 0.060488577028667029
      vertex 20.993314738128309 10.31518959443679 3.4765240349289619
    endloop
  endfacet
  facet normal 0.67490241780994098 -0.23800039445119328 0.69847157327651643
    outer loop
      vertex 24.004456149583014 -0.61108623805757023 3.0947143803354531
      vertex 27.59014990549818 1.1051720016357836 0.21482159109850654
      vertex 27.497655457377157 10.45397276132744 3.4897479913136999
    endloop
  endfacet
  facet normal 0.70717462807618947 -0.22243797211253857 0.67113738829524683
    outer loop
      vertex 31.022827001805091 -0.51319910541055103 3.2950214944252005
      vertex 34.458734029740675 1.0408489407307544 0.18968566455969552
      vertex 34.474574992280083 10.469443694045271 3.2979541150849432
    endloop
  endfacet
  facet normal 0.70608429744144052 -0.1607390347327893 0.6896433336296367
    outer loop
      vertex 37.057559495265281 -0.6996306793809175 3.1062695660065147
      vertex 40.453168989734053 0.97199068176508963 0.01932355138522486
      vertex 39.720860894181826 10.468171328665623 2.9824177456475032
    endloop
  endfacet
  facet normal 0.72019408523252504 -0.19171447375610978 0.66675785720792546
    outer loop
      vertex 43.64903954937251 -0.44554051807637779 3.1882112582015094
      vertex 46.920911512138318 0.75655646825092693 -0.00023777333583063082
      vertex 47.362376251925582 10.379646151145838 2.2898668928839068
    endloop
  endfacet
endsolid OBJECT
